<svg xmlns="http://www.w3.org/2000/svg" viewBox="0 0 500 500"><g id="freepik--Trophy--inject-36"><polygon points="249.86 427.66 249.86 408.93 295.34 382.67 295.34 401.41 249.86 427.66" style="fill:#37474f"></polygon><polygon points="249.86 427.66 204.39 401.41 204.39 382.67 249.86 408.93 249.86 427.66" style="fill:#263238"></polygon><polygon points="249.86 408.93 204.39 382.67 249.86 356.41 295.34 382.67 249.86 408.93" style="fill:#455a64"></polygon><polygon points="249.86 405.37 249.86 400.43 289.89 377.32 289.89 382.26 249.86 405.37" style="fill:#37474f"></polygon><polygon points="249.86 405.37 209.84 382.26 209.84 377.32 249.86 400.43 249.86 405.37" style="fill:#263238"></polygon><polygon points="249.86 400.43 209.84 377.32 249.86 354.21 289.89 377.32 249.86 400.43" style="fill:#455a64"></polygon><path d="M210.88,327.68c-2.13,0-4.36-.09-6.64-.29-17.47-1.58-29-9.54-33.31-23a27.24,27.24,0,0,1,2-20.91,26,26,0,0,1,15.57-13c15-4.45,28.17,1.7,32.1,14.94h0L232.36,325l-3.87.9A84.93,84.93,0,0,1,210.88,327.68Zm-12.73-51.26a26.08,26.08,0,0,0-7.51,1.19A18.55,18.55,0,0,0,179.56,287a19.7,19.7,0,0,0-1.51,15.13c6.66,20.75,34.44,18.7,44.82,17.16l-9.43-31.75h0C211.77,281.89,206.86,276.42,198.15,276.42Z" style="fill:#FFB703"></path><path d="M271.23,325.85l-3.86-.9,11.74-39.57h0c3.94-13.24,17.14-19.39,32.11-14.94a26,26,0,0,1,15.57,13,27.24,27.24,0,0,1,2,20.91c-4.33,13.46-15.85,21.42-33.32,23-2.27.2-4.5.29-6.63.29A85.2,85.2,0,0,1,271.23,325.85Zm15-38.34h0l-9.42,31.75c10.37,1.54,38.15,3.59,44.82-17.16A19.7,19.7,0,0,0,320.17,287a18.58,18.58,0,0,0-11.08-9.36,26.2,26.2,0,0,0-7.52-1.19C292.86,276.42,288,281.89,286.28,287.51Z" style="fill:#FFB703"></path><path d="M270.51,374.3a13.18,13.18,0,0,0-5.68-5.77c-8.52-4.91-22.34-4.91-30.86,0a13.18,13.18,0,0,0-5.68,5.77h-.71v3.14c0,3.22,2.13,6.45,6.39,8.91,8.52,4.92,22.34,4.92,30.86,0,4.26-2.46,6.39-5.69,6.39-8.91V374.3Z" style="fill:#FFB703"></path><path d="M270.51,374.3a13.18,13.18,0,0,0-5.68-5.77c-8.52-4.91-22.34-4.91-30.86,0a13.18,13.18,0,0,0-5.68,5.77h-.71v3.14c0,3.22,2.13,6.45,6.39,8.91,8.52,4.92,22.34,4.92,30.86,0,4.26-2.46,6.39-5.69,6.39-8.91V374.3Z" style="opacity:0.30000000000000004"></path><path d="M264.83,365c-.4-.23-.82-.44-1.25-.65-2.28-1.54-7.64-5.71-7.64-11.07,0-8.29,15.28-16.94,15.28-16.94l-44-.34s15.4,9,15.4,17.28c0,6.81-8.67,11.72-8.67,11.72-8.52,4.92-8.52,12.89,0,17.81s22.34,4.92,30.86,0S273.35,369.9,264.83,365Z" style="fill:#FFB703"></path><path d="M196.86,259.42v18.39a71.19,71.19,0,0,0,26.68,55.59l.09.09,1,.76c.81.59,1.69,1.17,2.64,1.73a44.12,44.12,0,0,0,19.52,5.25,51.38,51.38,0,0,0,5.55,0c7.12-.36,14.06-2.11,19.51-5.25l.92-.56s2.34-1.6,3.27-2.44a.58.58,0,0,1,.12-.1,71.23,71.23,0,0,0,26.74-55.65V259.42Z" style="fill:#FFB703"></path><path d="M221,259.42v18.39A119.31,119.31,0,0,0,226.72,315a75.06,75.06,0,0,0,8.82,18.43l.06.09c.17.25.34.51.52.76a21,21,0,0,0,1.44,1.73s8.37,9,8.37,17.28A18.62,18.62,0,0,1,241.22,365a13.15,13.15,0,0,0,0,17.81,11.38,11.38,0,0,0,16.78,0A13.13,13.13,0,0,0,258,365c-.22-.23-.44-.44-.67-.65a18.32,18.32,0,0,1-4.16-11.07c0-8.29,8.31-16.94,8.31-16.94h0l.35-.33.5-.56s1.27-1.6,1.77-2.44a.86.86,0,0,1,.07-.1c9.08-13.35,14.54-33.73,14.54-55.65V259.42Z" style="fill:#FFB703"></path><path d="M221,259.42v18.39A119.31,119.31,0,0,0,226.72,315a75.06,75.06,0,0,0,8.82,18.43l.06.09c.17.25.34.51.52.76a21,21,0,0,0,1.44,1.73s8.37,9,8.37,17.28A18.62,18.62,0,0,1,241.22,365a13.15,13.15,0,0,0,0,17.81,11.38,11.38,0,0,0,16.78,0A13.13,13.13,0,0,0,258,365c-.22-.23-.44-.44-.67-.65a18.32,18.32,0,0,1-4.16-11.07c0-8.29,8.31-16.94,8.31-16.94h0l.35-.33.5-.56s1.27-1.6,1.77-2.44a.86.86,0,0,1,.07-.1c9.08-13.35,14.54-33.73,14.54-55.65V259.42Z" style="fill:#fff;opacity:0.1"></path><ellipse cx="249.86" cy="259.42" rx="53.01" ry="30.6" style="fill:#FFB703"></ellipse><ellipse cx="249.86" cy="259.42" rx="53.01" ry="30.6" style="opacity:0.1"></ellipse><path d="M249.86,282.54c-12.68,0-25-2.9-33.74-8-7.49-4.32-11.78-9.85-11.78-15.16s4.29-10.84,11.78-15.16c8.77-5.06,21.06-8,33.74-8s25,2.9,33.74,8c7.49,4.32,11.79,9.85,11.79,15.16s-4.3,10.84-11.79,15.16C274.84,279.64,262.54,282.54,249.86,282.54Z" style="fill:#FFB703"></path><path d="M249.86,282.54c-12.68,0-25-2.9-33.74-8-7.49-4.32-11.78-9.85-11.78-15.16s4.29-10.84,11.78-15.16c8.77-5.06,21.06-8,33.74-8s25,2.9,33.74,8c7.49,4.32,11.79,9.85,11.79,15.16s-4.3,10.84-11.79,15.16C274.84,279.64,262.54,282.54,249.86,282.54Z" style="opacity:0.30000000000000004"></path></g></svg>