<svg width="25" height="25" viewBox="0 0 25 25" fill="none" xmlns="http://www.w3.org/2000/svg">
<path d="M6.5 19.6658L8.475 18.8658C8.30833 18.3825 8.15417 17.8908 8.0125 17.3908C7.87083 16.8908 7.75833 16.3908 7.675 15.8908L6.5 16.6908V19.6658ZM10.5 18.6158H14.5C14.8 17.9492 15.0417 17.1367 15.225 16.1783C15.4083 15.22 15.5 14.2408 15.5 13.2408C15.5 11.5908 15.225 10.0283 14.675 8.55332C14.125 7.07832 13.4 5.94082 12.5 5.14082C11.6 5.94082 10.875 7.07832 10.325 8.55332C9.775 10.0283 9.5 11.5908 9.5 13.2408C9.5 14.2408 9.59167 15.22 9.775 16.1783C9.95833 17.1367 10.2 17.9492 10.5 18.6158ZM12.5 13.6158C11.95 13.6158 11.4792 13.42 11.0875 13.0283C10.6958 12.6367 10.5 12.1658 10.5 11.6158C10.5 11.0658 10.6958 10.595 11.0875 10.2033C11.4792 9.81165 11.95 9.61582 12.5 9.61582C13.05 9.61582 13.5208 9.81165 13.9125 10.2033C14.3042 10.595 14.5 11.0658 14.5 11.6158C14.5 12.1658 14.3042 12.6367 13.9125 13.0283C13.5208 13.42 13.05 13.6158 12.5 13.6158ZM18.5 19.6658V16.6908L17.325 15.8908C17.2417 16.3908 17.1292 16.8908 16.9875 17.3908C16.8458 17.8908 16.6917 18.3825 16.525 18.8658L18.5 19.6658ZM12.5 2.59082C14.15 3.79082 15.3958 5.31582 16.2375 7.16582C17.0792 9.01582 17.5 11.1658 17.5 13.6158L19.6 15.0158C19.8833 15.1992 20.1042 15.4408 20.2625 15.7408C20.4208 16.0408 20.5 16.3575 20.5 16.6908V22.6158L15.525 20.6158H9.475L4.5 22.6158V16.6908C4.5 16.3575 4.57917 16.0408 4.7375 15.7408C4.89583 15.4408 5.11667 15.1992 5.4 15.0158L7.5 13.6158C7.5 11.1658 7.92083 9.01582 8.7625 7.16582C9.60417 5.31582 10.85 3.79082 12.5 2.59082Z" fill="black"/>
</svg>
