<svg width="24" height="24" viewBox="0 0 24 24" fill="none" xmlns="http://www.w3.org/2000/svg">
<path d="M5.8 11.2998L2 21.9998L12.7 18.2098" stroke="black" stroke-width="2" stroke-linecap="round" stroke-linejoin="round"/>
<path d="M4 3H4.01" stroke="black" stroke-width="2" stroke-linecap="round" stroke-linejoin="round"/>
<path d="M22 8H22.01" stroke="black" stroke-width="2" stroke-linecap="round" stroke-linejoin="round"/>
<path d="M15 2H15.01" stroke="black" stroke-width="2" stroke-linecap="round" stroke-linejoin="round"/>
<path d="M22 20H22.01" stroke="black" stroke-width="2" stroke-linecap="round" stroke-linejoin="round"/>
<path d="M22 2L19.76 2.75C19.1224 2.96239 18.5783 3.38964 18.2208 3.95872C17.8633 4.52781 17.7146 5.20339 17.8 5.87C17.9 6.73 17.23 7.5 16.35 7.5H15.97C15.11 7.5 14.37 8.1 14.21 8.94L14 10" stroke="black" stroke-width="2" stroke-linecap="round" stroke-linejoin="round"/>
<path d="M22 12.9999L21.18 12.6699C20.32 12.3299 19.36 12.8699 19.2 13.7799C19.09 14.4799 18.48 14.9999 17.77 14.9999H17" stroke="black" stroke-width="2" stroke-linecap="round" stroke-linejoin="round"/>
<path d="M11 2L11.33 2.82C11.67 3.68 11.13 4.64 10.22 4.8C9.52 4.9 9 5.52 9 6.23V7" stroke="black" stroke-width="2" stroke-linecap="round" stroke-linejoin="round"/>
<path d="M10.9995 13C12.9295 14.93 13.8295 17.17 12.9995 18C12.1695 18.83 9.92953 17.93 7.99953 16C6.06953 14.07 5.16953 11.83 5.99953 11C6.82953 10.17 9.06953 11.07 10.9995 13Z" stroke="black" stroke-width="2" stroke-linecap="round" stroke-linejoin="round"/>
</svg>
