<svg width="24" height="25" viewBox="0 0 24 25" fill="none" xmlns="http://www.w3.org/2000/svg">
<path d="M15 13.6157C15 12.8201 14.6839 12.057 14.1213 11.4944C13.5587 10.9318 12.7956 10.6157 12 10.6157C11.2044 10.6157 10.4413 10.9318 9.87868 11.4944C9.31607 12.057 9 12.8201 9 13.6157" stroke="black" stroke-width="2" stroke-linecap="round" stroke-linejoin="round"/>
<path d="M4 20.1157V5.11572C4 4.45268 4.26339 3.8168 4.73223 3.34796C5.20107 2.87911 5.83696 2.61572 6.5 2.61572H19C19.2652 2.61572 19.5196 2.72108 19.7071 2.90862C19.8946 3.09615 20 3.35051 20 3.61572V21.6157C20 21.8809 19.8946 22.1353 19.7071 22.3228C19.5196 22.5104 19.2652 22.6157 19 22.6157H6.5C5.83696 22.6157 5.20107 22.3523 4.73223 21.8835C4.26339 21.4146 4 20.7788 4 20.1157ZM4 20.1157C4 19.4527 4.26339 18.8168 4.73223 18.348C5.20107 17.8791 5.83696 17.6157 6.5 17.6157H20" stroke="black" stroke-width="2" stroke-linecap="round" stroke-linejoin="round"/>
<path d="M12 10.6157C13.1046 10.6157 14 9.72029 14 8.61572C14 7.51115 13.1046 6.61572 12 6.61572C10.8954 6.61572 10 7.51115 10 8.61572C10 9.72029 10.8954 10.6157 12 10.6157Z" stroke="black" stroke-width="2" stroke-linecap="round" stroke-linejoin="round"/>
</svg>
