<svg width="25" height="25" viewBox="0 0 25 25" fill="none" xmlns="http://www.w3.org/2000/svg">
<path d="M7.5 14.1157C7.91667 14.1157 8.27083 13.9699 8.5625 13.6782C8.85417 13.3866 9 13.0324 9 12.6157C9 12.1991 8.85417 11.8449 8.5625 11.5532C8.27083 11.2616 7.91667 11.1157 7.5 11.1157C7.08333 11.1157 6.72917 11.2616 6.4375 11.5532C6.14583 11.8449 6 12.1991 6 12.6157C6 13.0324 6.14583 13.3866 6.4375 13.6782C6.72917 13.9699 7.08333 14.1157 7.5 14.1157ZM12.5 14.1157C12.9167 14.1157 13.2708 13.9699 13.5625 13.6782C13.8542 13.3866 14 13.0324 14 12.6157C14 12.1991 13.8542 11.8449 13.5625 11.5532C13.2708 11.2616 12.9167 11.1157 12.5 11.1157C12.0833 11.1157 11.7292 11.2616 11.4375 11.5532C11.1458 11.8449 11 12.1991 11 12.6157C11 13.0324 11.1458 13.3866 11.4375 13.6782C11.7292 13.9699 12.0833 14.1157 12.5 14.1157ZM17.5 14.1157C17.9167 14.1157 18.2708 13.9699 18.5625 13.6782C18.8542 13.3866 19 13.0324 19 12.6157C19 12.1991 18.8542 11.8449 18.5625 11.5532C18.2708 11.2616 17.9167 11.1157 17.5 11.1157C17.0833 11.1157 16.7292 11.2616 16.4375 11.5532C16.1458 11.8449 16 12.1991 16 12.6157C16 13.0324 16.1458 13.3866 16.4375 13.6782C16.7292 13.9699 17.0833 14.1157 17.5 14.1157ZM12.5 22.6157C11.1167 22.6157 9.81667 22.3532 8.6 21.8282C7.38333 21.3032 6.325 20.5907 5.425 19.6907C4.525 18.7907 3.8125 17.7324 3.2875 16.5157C2.7625 15.2991 2.5 13.9991 2.5 12.6157C2.5 11.2324 2.7625 9.93239 3.2875 8.71572C3.8125 7.49906 4.525 6.44072 5.425 5.54072C6.325 4.64072 7.38333 3.92822 8.6 3.40322C9.81667 2.87822 11.1167 2.61572 12.5 2.61572C13.8833 2.61572 15.1833 2.87822 16.4 3.40322C17.6167 3.92822 18.675 4.64072 19.575 5.54072C20.475 6.44072 21.1875 7.49906 21.7125 8.71572C22.2375 9.93239 22.5 11.2324 22.5 12.6157C22.5 13.9991 22.2375 15.2991 21.7125 16.5157C21.1875 17.7324 20.475 18.7907 19.575 19.6907C18.675 20.5907 17.6167 21.3032 16.4 21.8282C15.1833 22.3532 13.8833 22.6157 12.5 22.6157ZM12.5 20.6157C14.7333 20.6157 16.625 19.8407 18.175 18.2907C19.725 16.7407 20.5 14.8491 20.5 12.6157C20.5 10.3824 19.725 8.49072 18.175 6.94072C16.625 5.39072 14.7333 4.61572 12.5 4.61572C10.2667 4.61572 8.375 5.39072 6.825 6.94072C5.275 8.49072 4.5 10.3824 4.5 12.6157C4.5 14.8491 5.275 16.7407 6.825 18.2907C8.375 19.8407 10.2667 20.6157 12.5 20.6157Z" fill="black"/>
</svg>
