<svg width="24" height="25" viewBox="0 0 24 25" fill="none" xmlns="http://www.w3.org/2000/svg">
<path d="M6 22.6157C5.45 22.6157 4.97917 22.4199 4.5875 22.0282C4.19583 21.6366 4 21.1657 4 20.6157V8.61572C4 8.06572 4.19583 7.59489 4.5875 7.20322C4.97917 6.81156 5.45 6.61572 6 6.61572H8C8 5.51572 8.39167 4.57406 9.175 3.79072C9.95833 3.00739 10.9 2.61572 12 2.61572C13.1 2.61572 14.0417 3.00739 14.825 3.79072C15.6083 4.57406 16 5.51572 16 6.61572H18C18.55 6.61572 19.0208 6.81156 19.4125 7.20322C19.8042 7.59489 20 8.06572 20 8.61572V20.6157C20 21.1657 19.8042 21.6366 19.4125 22.0282C19.0208 22.4199 18.55 22.6157 18 22.6157H6ZM6 20.6157H18V8.61572H16V10.6157C16 10.8991 15.9042 11.1366 15.7125 11.3282C15.5208 11.5199 15.2833 11.6157 15 11.6157C14.7167 11.6157 14.4792 11.5199 14.2875 11.3282C14.0958 11.1366 14 10.8991 14 10.6157V8.61572H10V10.6157C10 10.8991 9.90417 11.1366 9.7125 11.3282C9.52083 11.5199 9.28333 11.6157 9 11.6157C8.71667 11.6157 8.47917 11.5199 8.2875 11.3282C8.09583 11.1366 8 10.8991 8 10.6157V8.61572H6V20.6157ZM10 6.61572H14C14 6.06572 13.8042 5.59489 13.4125 5.20322C13.0208 4.81156 12.55 4.61572 12 4.61572C11.45 4.61572 10.9792 4.81156 10.5875 5.20322C10.1958 5.59489 10 6.06572 10 6.61572Z" fill="black"/>
</svg>
