<svg width="25" height="25" viewBox="0 0 25 25" fill="none" xmlns="http://www.w3.org/2000/svg">
<path d="M12.5 21.6157C10.2 21.6157 8.19583 20.8532 6.4875 19.3282C4.77917 17.8032 3.8 15.8991 3.55 13.6157H5.6C5.83333 15.3491 6.60417 16.7824 7.9125 17.9157C9.22083 19.0491 10.75 19.6157 12.5 19.6157C14.45 19.6157 16.1042 18.9366 17.4625 17.5782C18.8208 16.2199 19.5 14.5657 19.5 12.6157C19.5 10.6657 18.8208 9.01156 17.4625 7.65322C16.1042 6.29489 14.45 5.61572 12.5 5.61572C11.35 5.61572 10.275 5.88239 9.275 6.41572C8.275 6.94906 7.43333 7.68239 6.75 8.61572H9.5V10.6157H3.5V4.61572H5.5V6.96572C6.35 5.89906 7.3875 5.07406 8.6125 4.49072C9.8375 3.90739 11.1333 3.61572 12.5 3.61572C13.75 3.61572 14.9208 3.85322 16.0125 4.32822C17.1042 4.80322 18.0542 5.44489 18.8625 6.25322C19.6708 7.06156 20.3125 8.01156 20.7875 9.10322C21.2625 10.1949 21.5 11.3657 21.5 12.6157C21.5 13.8657 21.2625 15.0366 20.7875 16.1282C20.3125 17.2199 19.6708 18.1699 18.8625 18.9782C18.0542 19.7866 17.1042 20.4282 16.0125 20.9032C14.9208 21.3782 13.75 21.6157 12.5 21.6157ZM15.3 16.8157L11.5 13.0157V7.61572H13.5V12.2157L16.7 15.4157L15.3 16.8157Z" fill="black"/>
</svg>
